<svg xmlns="http://www.w3.org/2000/svg" viewBox="0 0 140 27"><defs><clipPath id="clip-path"><path style="fill:none" d="M0 0h140v27H0z"/></clipPath><style>.cls-5{fill:none}.cls-3{fill:#f0f3f4}.cls-4{fill:#93b1b1}.cls-5{stroke:#93b1b1;stroke-miterlimit:10}</style></defs><g id="Capa_2" data-name="Capa 2"><g style="clip-path:url(#clip-path)" id="Capa_1-2" data-name="Capa 1"><path class="cls-3" d="M45.81 13.5c0 5.11-3.34 7.61-7.9 7.61S30 18.78 30 13.5s3.34-7.61 7.89-7.61 7.92 2.42 7.92 7.61ZM18.62 16.8l5 10.2h-6.2l-4.26-8.88H5.75V27H0V.43h12.83C16 .43 23 .42 23 9.31c0 4.58-2 6.24-4.38 7.49Zm-.92-7.51c0-3.68-3.44-3.68-5.22-3.68H5.72V13h6.67c1.61 0 5.31 0 5.31-3.71Z"/><path class="cls-3" d="M51.41 13.5c0 8.73-5.85 13.5-13.5 13.5s-13.5-4.61-13.5-13.5c0-8.73 5.85-13.5 13.5-13.5s13.5 4.77 13.5 13.5Zm-5.6 0c0-5.19-3.34-7.61-7.9-7.61S30 8.22 30 13.5s3.35 7.61 7.9 7.61 7.91-2.5 7.91-7.61ZM80.11 13.5c0 8.73-5.85 13.5-13.5 13.5s-13.5-4.61-13.5-13.5C53.11 4.77 59 0 66.61 0s13.5 4.77 13.5 13.5Zm-5.6 0c0-5.19-3.34-7.61-7.9-7.61s-7.9 2.33-7.9 7.61 3.34 7.61 7.9 7.61 7.9-2.5 7.9-7.61ZM113 .43V27h-5.72V7.22h-.56l-5 19.78h-8.25l-5-19.78h-.57V27h-5.72V.43H92l5.24 21.25h.53L103 .46h1.77ZM140 18.75c0 6.59-4.35 8.25-12 8.25-13 0-13-7.25-13-9.82h5.87c0 4 3.49 4.64 6.9 4.64 4.33 0 6.12-1 6.12-3.07 0-1.81-1.79-2.12-7-2.89-7.85-1.17-11.38-2.82-11.38-7.67 0-3.76 2.74-8.09 11.32-8.09 10.21 0 12.24 5.77 12.24 9.82h-6c0-1.84-.81-4.58-6.25-4.58-4.43 0-5.43 1.61-5.43 2.89s1.55 1.94 5.94 2.66c5.97.97 12.67 1.85 12.67 7.86Z"/><path class="cls-4" d="M39.78 13.5a1.69 1.69 0 0 1-1.87 1.8 1.67 1.67 0 0 1-1.86-1.8 1.67 1.67 0 0 1 1.86-1.8 1.68 1.68 0 0 1 1.87 1.8Z"/><path class="cls-5" d="M37.91 6.48c-4.2 0-7.28 2.15-7.28 7s3.08 7 7.28 7 7.29-2.31 7.29-7-3.08-7-7.29-7Zm0 12.93c-3.53 0-6.13-1.81-6.13-5.91s2.6-5.91 6.13-5.91 6.14 1.88 6.14 5.91-2.6 5.91-6.14 5.91Z"/><path class="cls-5" d="M37.91 3.54c-6 0-10.34 3.05-10.34 10s4.38 10 10.34 10 10.34-3.27 10.34-10-4.37-10-10.34-10Zm0 18.34c-5 0-8.7-2.56-8.7-8.38s3.68-8.39 8.7-8.39 8.7 2.67 8.7 8.39-3.67 8.38-8.7 8.38Z"/><path class="cls-3" d="M74.51 13.5c0 5.11-3.34 7.61-7.9 7.61s-7.89-2.33-7.89-7.61 3.34-7.61 7.89-7.61 7.9 2.42 7.9 7.61Z"/><path class="cls-4" d="M68.48 13.5a1.69 1.69 0 0 1-1.87 1.8 1.67 1.67 0 0 1-1.87-1.8 1.87 1.87 0 0 1 3.74 0Z"/><path class="cls-5" d="M66.61 6.48c-4.2 0-7.28 2.15-7.28 7s3.08 7 7.28 7 7.29-2.31 7.29-7-3.08-7-7.29-7Zm0 12.93c-3.54 0-6.13-1.81-6.13-5.91s2.59-5.91 6.13-5.91 6.13 1.88 6.13 5.91-2.59 5.91-6.13 5.91Z"/><path class="cls-5" d="M66.61 3.54c-6 0-10.34 3.05-10.34 10s4.37 10 10.34 10S77 20.19 77 13.5s-4.42-9.96-10.39-9.96Zm0 18.34c-5 0-8.7-2.56-8.7-8.38s3.68-8.39 8.7-8.39 8.7 2.67 8.7 8.39-3.68 8.38-8.7 8.38Z"/></g></g></svg>