<svg xmlns="http://www.w3.org/2000/svg" viewBox="0 0 41 41"><defs><style>.cls-1{fill:#536361}.cls-3{fill:none;stroke:#fff;stroke-miterlimit:10}</style></defs><g id="Capa_2" data-name="Capa 2"><g id="Capa_1-2" data-name="Capa 1"><path class="cls-1" d="M41 20.5C41 33.77 32.12 41 20.5 41S0 34 0 20.5C0 7.25 8.88 0 20.5 0S41 7.25 41 20.5Zm-8.51 0C32.49 12.62 27.42 9 20.5 9s-12 3.53-12 11.55 5.07 11.55 12 11.55 11.99-3.84 11.99-11.6Z"/><path class="cls-1" d="M32 20.5C32 28.22 27.13 32 20.5 32S9 28.48 9 20.5 13.87 9 20.5 9 32 12.65 32 20.5Z"/><path d="M23 20.5a2.3 2.3 0 0 1-2.5 2.5 2.27 2.27 0 0 1-2.5-2.5 2.27 2.27 0 0 1 2.5-2.5 2.29 2.29 0 0 1 2.5 2.5Z" style="fill:#fff"/><path class="cls-3" d="M20.5 10C13.87 10 9 13.22 9 20.5S13.87 31 20.5 31 32 27.55 32 20.5 27.13 10 20.5 10Zm0 19.34c-5.58 0-9.68-2.7-9.68-8.84s4.1-8.84 9.68-8.84 9.68 2.81 9.68 8.84-4.1 8.84-9.68 8.84Z"/><path class="cls-3" d="M20.5 5C11.56 5 5 9.75 5 20.5S11.56 36 20.5 36 36 30.91 36 20.5C36 9.93 29.45 5 20.5 5Zm0 28.55c-7.52 0-13-4-13-13s5.52-13 13-13 13 4.15 13 13.05-5.5 12.95-13 12.95Z"/></g></g></svg>