<svg xmlns="http://www.w3.org/2000/svg" viewBox="0 0 40 40"><g id="Capa_2" data-name="Capa 2"><g id="Capa_1-2" data-name="Capa 1"><circle cx="20" cy="20" r="19.5" style="fill:none;stroke:#f0f3f4"/><path d="M20 8a12 12 0 1 0 12 12A12 12 0 0 0 20 8Zm-6.09 16.4a14.47 14.47 0 0 1 4.24-.63A14.27 14.27 0 0 1 25 25.54a.84.84 0 0 1 .29.57 1.22 1.22 0 0 1 0 .71.74.74 0 0 1-.16.19.53.53 0 0 1-.21.11.65.65 0 0 1-.24 0 .63.63 0 0 1-.23-.08 13.17 13.17 0 0 0-10.16-1 1 1 0 0 1-.24 0 .62.62 0 0 1-.23-.07.7.7 0 0 1-.19-.15.53.53 0 0 1-.11-.21c-.12-.33.1-1.11.39-1.21Zm-.52-4.4a18.19 18.19 0 0 1 4.76-.63 18 18 0 0 1 8.3 2 .77.77 0 0 1 .38.43.7.7 0 0 1 0 .29.75.75 0 0 1-.09.29c-.22.44-.49.74-.66.74a.73.73 0 0 1-.35-.09 16.26 16.26 0 0 0-7.61-1.85 16.09 16.09 0 0 0-4.37.58.57.57 0 0 1-.29 0 .71.71 0 0 1-.28-.09.79.79 0 0 1-.22-.19.91.91 0 0 1-.13-.26c-.08-.39.17-1.13.56-1.22Zm-.14-2.88a1 1 0 0 1-.34 0 .93.93 0 0 1-.33-.12 1 1 0 0 1-.26-.23.73.73 0 0 1-.14-.31 1 1 0 0 1 .64-1.19 22.22 22.22 0 0 1 5.33-.65 21.84 21.84 0 0 1 9.85 2.3.89.89 0 0 1 .4 1.19.86.86 0 0 1-1.18.52 20 20 0 0 0-9-2.13 20.35 20.35 0 0 0-4.97.6Z" style="fill:#f0f3f4"/></g></g></svg>