<svg xmlns="http://www.w3.org/2000/svg" viewBox="0 0 40 40"><defs><style>.cls-1 {
  fill: none;
  stroke: #f0f3f4;
}

.cls-2 {
  fill: #f0f3f4;
}

</style></defs><title>tw__logo</title><g id="Capa_2" data-name="Capa 2"><g id="Capa_1-2" data-name="Capa 1"><circle class="cls-1" cx="20" cy="20" r="19.5"></circle><path class="cls-2" d="M31.71,13.19a9.33,9.33,0,0,1-2.68.73,4.69,4.69,0,0,0,2-2.58,9.12,9.12,0,0,1-3,1.13,4.66,4.66,0,0,0-5.6-.92,4.78,4.78,0,0,0-2.05,2.19,4.71,4.71,0,0,0-.29,3,13.2,13.2,0,0,1-5.32-1.41,13.25,13.25,0,0,1-4.28-3.45,4.67,4.67,0,0,0-.08,4.54A4.8,4.8,0,0,0,12,18.08a4.74,4.74,0,0,1-2.11-.59v.06a4.68,4.68,0,0,0,3.74,4.57,4.66,4.66,0,0,1-2.1.08,4.6,4.6,0,0,0,1.65,2.32,4.7,4.7,0,0,0,2.7.92,9.4,9.4,0,0,1-5.79,2A10.32,10.32,0,0,1,9,27.37,13.26,13.26,0,0,0,29.4,16.2c0-.2,0-.4,0-.6a9.33,9.33,0,0,0,2.32-2.41Z"></path></g></g></svg>