<svg xmlns="http://www.w3.org/2000/svg" viewBox="0 0 40 40"><defs><style>.cls-1{fill:none;stroke:#f0f3f4;}.cls-2{fill:#f0f3f4;fill-rule:evenodd;}</style></defs><title>inta__logo</title><g id="Capa_2" data-name="Capa 2"><g id="Capa_1-2" data-name="Capa 1"><circle class="cls-1" cx="20" cy="20" r="19.5"/><path class="cls-2" d="M15.47,9.07C16.64,9,17,9,20,9s3.36,0,4.53.07a8.06,8.06,0,0,1,2.68.51,5.67,5.67,0,0,1,3.21,3.21,8,8,0,0,1,.51,2.67C31,16.64,31,17,31,20s0,3.36-.07,4.53a8,8,0,0,1-.51,2.67,5.65,5.65,0,0,1-3.21,3.22,8,8,0,0,1-2.67.51C23.36,31,23,31,20,31s-3.36,0-4.53-.07a8,8,0,0,1-2.67-.51,5.65,5.65,0,0,1-3.22-3.21,8,8,0,0,1-.51-2.67C9,23.36,9,23,9,20s0-3.36.07-4.53a8.06,8.06,0,0,1,.51-2.68,5.67,5.67,0,0,1,3.21-3.21,8,8,0,0,1,2.67-.51Zm9,2C23.28,11,22.94,11,20,11s-3.28,0-4.44.07a5.9,5.9,0,0,0-2.05.38,3.32,3.32,0,0,0-1.26.82,3.2,3.2,0,0,0-.82,1.26,5.9,5.9,0,0,0-.38,2.05C11,16.72,11,17.06,11,20s0,3.28.07,4.44a5.9,5.9,0,0,0,.38,2,3.2,3.2,0,0,0,.82,1.26,3.34,3.34,0,0,0,1.26.83,6,6,0,0,0,2.05.37c1.16.06,1.5.07,4.44.07s3.28,0,4.44-.07a6,6,0,0,0,2-.37,3.74,3.74,0,0,0,2.09-2.09,6,6,0,0,0,.37-2C29,23.28,29,22.94,29,20s0-3.28-.07-4.44a6,6,0,0,0-.37-2.05,3.34,3.34,0,0,0-.83-1.26,3.2,3.2,0,0,0-1.26-.82A5.9,5.9,0,0,0,24.44,11.05ZM18.59,23.39a3.67,3.67,0,0,0,5.07-3.75,3.64,3.64,0,0,0-1.07-2.23,3.5,3.5,0,0,0-1.35-.86,3.69,3.69,0,0,0-3.13.3,3.69,3.69,0,0,0-1.74,2.61,3.65,3.65,0,0,0,.12,1.61,3.78,3.78,0,0,0,.79,1.39A3.65,3.65,0,0,0,18.59,23.39ZM16,16a5.69,5.69,0,0,1,1.84-1.22,5.64,5.64,0,0,1,4.32,0,5.56,5.56,0,0,1,3.06,3.06,5.64,5.64,0,0,1,0,4.32A5.65,5.65,0,1,1,16,16Zm10.91-.81a1.23,1.23,0,0,0,.3-.44,1.32,1.32,0,0,0,.12-.52,1.37,1.37,0,0,0-.1-.52,1.6,1.6,0,0,0-.29-.44,1.2,1.2,0,0,0-.45-.29,1.3,1.3,0,0,0-.52-.1,1.35,1.35,0,0,0-.52.11,1.31,1.31,0,0,0-.43.31,1.32,1.32,0,0,0,0,1.86,1.27,1.27,0,0,0,.92.39A1.3,1.3,0,0,0,26.91,15.19Z"/></g></g></svg>