<svg xmlns="http://www.w3.org/2000/svg" xmlns:xlink="http://www.w3.org/1999/xlink" viewBox="0 0 140 27"><defs><style>.cls-1,.cls-5{fill:none;}.cls-2{clip-path:url(#clip-path);}.cls-3{fill:#536361;}.cls-4{fill:#fff;}.cls-5{stroke:#fff;stroke-miterlimit:10;}</style><clipPath id="clip-path"><rect class="cls-1" width="140" height="27"/></clipPath></defs><title>rooms__logo_1</title><g id="Capa_2" data-name="Capa 2"><g id="Capa_1-2" data-name="Capa 1"><g class="cls-2"><path class="cls-3" d="M45.81,13.5c0,5.11-3.34,7.61-7.9,7.61S30,18.78,30,13.5s3.34-7.61,7.89-7.61S45.81,8.31,45.81,13.5Z"/><path class="cls-3" d="M18.62,16.8l5,10.2h-6.2l-4.26-8.88c-.56,0-1,0-1.41,0h-6V27H0V.43H5.72v0l7.11,0C16,.43,23,.42,23,9.31,23,13.89,21,15.55,18.62,16.8ZM17.7,9.29c0-3.68-3.44-3.68-5.22-3.68H5.72V13h6.67C14,13,17.7,13,17.7,9.29Z"/><path class="cls-3" d="M51.41,13.5c0,8.73-5.85,13.5-13.5,13.5s-13.5-4.61-13.5-13.5C24.41,4.77,30.26,0,37.91,0S51.41,4.77,51.41,13.5Zm-5.6,0c0-5.19-3.34-7.61-7.9-7.61S30,8.22,30,13.5s3.35,7.61,7.9,7.61S45.81,18.61,45.81,13.5Z"/><path class="cls-3" d="M80.11,13.5c0,8.73-5.85,13.5-13.5,13.5s-13.5-4.61-13.5-13.5C53.11,4.77,59,0,66.61,0S80.11,4.77,80.11,13.5Zm-5.6,0c0-5.19-3.34-7.61-7.9-7.61s-7.9,2.33-7.9,7.61,3.34,7.61,7.9,7.61S74.51,18.61,74.51,13.5Z"/><path class="cls-3" d="M113,.43V27h-5.72V7.22h-.56l-5,19.78H93.47l-5-19.78H87.9V27H82.18V.43h8.43v0H92l5.24,21.25h.53L103,.46h1.77v0Z"/><path class="cls-3" d="M140,18.75c0,6.59-4.35,8.25-12,8.25C115,27,115,19.75,115,17.18h5.87c0,4,3.49,4.64,6.9,4.64,4.33,0,6.12-1,6.12-3.07,0-1.81-1.79-2.12-7-2.89-7.85-1.17-11.38-2.82-11.38-7.68,0-3.75,2.74-8.08,11.32-8.08,10.21,0,12.24,5.77,12.24,9.82h-6c0-1.84-.81-4.58-6.25-4.58-4.43,0-5.43,1.61-5.43,2.89s1.55,1.94,5.94,2.66C133.3,11.86,140,12.74,140,18.75Z"/><path class="cls-4" d="M39.78,13.5a1.69,1.69,0,0,1-1.87,1.8,1.67,1.67,0,0,1-1.86-1.8,1.67,1.67,0,0,1,1.86-1.8A1.68,1.68,0,0,1,39.78,13.5Z"/><path class="cls-5" d="M37.91,6.48c-4.2,0-7.28,2.15-7.28,7s3.08,7,7.28,7,7.29-2.31,7.29-7S42.12,6.48,37.91,6.48Zm0,12.93c-3.53,0-6.13-1.81-6.13-5.91s2.6-5.91,6.13-5.91,6.14,1.88,6.14,5.91S41.45,19.41,37.91,19.41Z"/><path class="cls-5" d="M37.91,3.54c-6,0-10.34,3.05-10.34,10s4.38,10,10.34,10,10.34-3.27,10.34-10S43.88,3.54,37.91,3.54Zm0,18.34c-5,0-8.7-2.56-8.7-8.38s3.68-8.39,8.7-8.39,8.7,2.67,8.7,8.39S42.94,21.88,37.91,21.88Z"/><path class="cls-3" d="M74.51,13.5c0,5.11-3.34,7.61-7.9,7.61s-7.89-2.33-7.89-7.61,3.34-7.61,7.89-7.61S74.51,8.31,74.51,13.5Z"/><path class="cls-4" d="M68.48,13.5a1.69,1.69,0,0,1-1.87,1.8,1.67,1.67,0,0,1-1.87-1.8,1.87,1.87,0,0,1,3.74,0Z"/><path class="cls-5" d="M66.61,6.48c-4.2,0-7.28,2.15-7.28,7s3.08,7,7.28,7,7.29-2.31,7.29-7S70.82,6.48,66.61,6.48Zm0,12.93c-3.54,0-6.13-1.81-6.13-5.91s2.59-5.91,6.13-5.91,6.13,1.88,6.13,5.91S70.15,19.41,66.61,19.41Z"/><path class="cls-5" d="M66.61,3.54c-6,0-10.34,3.05-10.34,10s4.37,10,10.34,10S77,20.19,77,13.5,72.58,3.54,66.61,3.54Zm0,18.34c-5,0-8.7-2.56-8.7-8.38s3.68-8.39,8.7-8.39,8.7,2.67,8.7,8.39S71.63,21.88,66.61,21.88Z"/></g></g></g></svg>