<svg xmlns="http://www.w3.org/2000/svg" viewBox="0 0 401.46 76.63"><defs><style>.cls-1{fill:#fff;}.cls-2{fill:none;stroke:#fff;stroke-miterlimit:10;}</style></defs><title>rooms__logo</title><g id="Capa_2" data-name="Capa 2"><g id="Capa_1-2" data-name="Capa 1"><path d="M131.37,38.31c0,14.5-9.58,21.6-22.65,21.6S86.08,53.3,86.08,38.31s9.58-21.59,22.64-21.59S131.37,23.58,131.37,38.31Z"/><path d="M53.4,47.67l14.39,29H50L37.8,51.44c-1.62.07-3,.08-4,.08H16.4V76.63H0V1.23H16.4v.06c4,0,15.92-.06,20.39-.06C45.85,1.23,66,1.2,66,26.41,66,39.43,60.19,44.14,53.4,47.67ZM50.77,26.38c0-10.47-9.89-10.47-15-10.47H16.4v21H35.52C40.19,36.86,50.76,36.92,50.77,26.38Z"/><path d="M147.43,38.31c0,24.79-16.77,38.32-38.71,38.32S70,63.56,70,38.31C70,13.54,86.78,0,108.72,0S147.43,13.54,147.43,38.31Zm-16.06,0c0-14.73-9.59-21.59-22.65-21.59S86.07,23.34,86.07,38.31s9.59,21.6,22.65,21.6S131.37,52.81,131.37,38.31Z"/><path d="M229.72,38.31C229.72,63.1,213,76.63,191,76.63S152.3,63.56,152.3,38.31C152.3,13.54,169.07,0,191,0S229.72,13.54,229.72,38.31Zm-16.06,0c0-14.73-9.59-21.59-22.65-21.59s-22.65,6.62-22.65,21.59S178,59.91,191,59.91,213.66,52.81,213.66,38.31Z"/><path d="M324,1.23v75.4h-16.4V20.5H306L291.6,76.63H268L253.67,20.5h-1.6V76.63h-16.4V1.23h24.15V1.3h4l15,60.33h1.5l15-60.33h5.08V1.23Z"/><path d="M401.46,53.21c0,18.71-12.47,23.42-34.51,23.42-37.15,0-37.14-20.59-37.14-27.88h16.82c0,11.39,10,13.17,19.81,13.17,12.39,0,17.55-2.86,17.55-8.7,0-5.13-5.15-6-19.93-8.2-22.53-3.33-32.66-8-32.66-21.79,0-10.65,7.88-22.94,32.48-22.94C393.15.29,399,16.67,399,28.16h-17.2c0-5.23-2.32-13-17.91-13-12.7,0-15.58,4.58-15.58,8.22,0,4,4.44,5.5,17,7.54C382.24,33.67,401.46,36.15,401.46,53.21Z"/><path class="cls-1" d="M114.07,38.31c0,3.43-2.26,5.11-5.35,5.11s-5.35-1.56-5.35-5.11,2.26-5.1,5.35-5.1S114.07,34.83,114.07,38.31Z"/><path class="cls-2" d="M108.72,18.39c-12,0-20.89,6.1-20.89,19.92s8.84,19.92,20.89,19.92,20.9-6.54,20.9-19.92C129.62,24.72,120.78,18.39,108.72,18.39Zm0,36.69c-10.14,0-17.58-5.13-17.58-16.77s7.44-16.77,17.58-16.77,17.59,5.33,17.59,16.77C126.31,49.57,118.87,55.08,108.72,55.08Z"/><path class="cls-2" d="M108.71,10c-17.1,0-29.65,8.66-29.65,28.27s12.55,28.28,29.65,28.28,29.67-9.29,29.67-28.28C138.38,19,125.83,10,108.71,10Zm0,52.07c-14.39,0-24.95-7.28-24.95-23.8s10.56-23.8,24.95-23.8,25,7.57,25,23.8C133.68,54.29,123.12,62.11,108.71,62.11Z"/><path d="M213.66,38.31c0,14.5-9.58,21.6-22.65,21.6s-22.64-6.61-22.64-21.6S178,16.72,191,16.72,213.66,23.58,213.66,38.31Z"/><path class="cls-1" d="M196.36,38.31c0,3.43-2.26,5.11-5.35,5.11s-5.35-1.56-5.35-5.11,2.26-5.1,5.35-5.1S196.36,34.83,196.36,38.31Z"/><path class="cls-2" d="M191,18.39c-12,0-20.89,6.1-20.89,19.92S179,58.23,191,58.23s20.9-6.54,20.9-19.92C211.91,24.72,203.07,18.39,191,18.39Zm0,36.69c-10.14,0-17.58-5.13-17.58-16.77S180.87,21.54,191,21.54s17.59,5.33,17.59,16.77C208.6,49.57,201.16,55.08,191,55.08Z"/><path class="cls-2" d="M191,10c-17.1,0-29.65,8.66-29.65,28.27S173.9,66.59,191,66.59s29.67-9.29,29.67-28.28C220.67,19,208.12,10,191,10Zm0,52.07c-14.39,0-24.95-7.28-24.95-23.8s10.56-23.8,24.95-23.8,25,7.57,25,23.8C216,54.29,205.41,62.11,191,62.11Z"/></g></g></svg>